<svg xmlns="http://www.w3.org/2000/svg" xmlns:xlink="http://www.w3.org/1999/xlink" width="800" zoomAndPan="magnify" viewBox="0 0 600 225" height="300" preserveAspectRatio="xMidYMid meet" version="1.2"><defs/><g id="a128384442"><g style="fill:#a149f2;fill-opacity:1;"><g transform="translate(7.745444, 154.039818)"><path style="stroke:none" d="M 13.53125 -83.09375 L 22.3125 -83.09375 L 22.3125 0 L 13.53125 0 Z M 13.53125 -83.09375 "/></g></g><g style="fill:#a149f2;fill-opacity:1;"><g transform="translate(43.593532, 154.039818)"><path style="stroke:none" d="M 43.5625 -62.90625 C 51.394531 -62.90625 57.625 -60.628906 62.25 -56.078125 C 66.882812 -51.535156 69.203125 -44.910156 69.203125 -36.203125 L 69.203125 0 L 60.78125 0 L 60.78125 -35.375 C 60.78125 -41.863281 59.15625 -46.804688 55.90625 -50.203125 C 52.664062 -53.609375 48.035156 -55.3125 42.015625 -55.3125 C 35.296875 -55.3125 29.972656 -53.3125 26.046875 -49.3125 C 22.128906 -45.320312 20.171875 -39.804688 20.171875 -32.765625 L 20.171875 0 L 11.75 0 L 11.75 -62.4375 L 19.828125 -62.4375 L 19.828125 -50.921875 C 22.117188 -54.722656 25.300781 -57.671875 29.375 -59.765625 C 33.457031 -61.859375 38.1875 -62.90625 43.5625 -62.90625 Z M 43.5625 -62.90625 "/></g></g><g style="fill:#a149f2;fill-opacity:1;"><g transform="translate(123.954958, 154.039818)"><path style="stroke:none" d="M 28.484375 0.59375 C 23.421875 0.59375 18.570312 -0.132812 13.9375 -1.59375 C 9.3125 -3.0625 5.695312 -4.90625 3.09375 -7.125 L 6.890625 -13.765625 C 9.492188 -11.710938 12.773438 -10.03125 16.734375 -8.71875 C 20.691406 -7.414062 24.804688 -6.765625 29.078125 -6.765625 C 34.773438 -6.765625 38.988281 -7.65625 41.71875 -9.4375 C 44.445312 -11.21875 45.8125 -13.726562 45.8125 -16.96875 C 45.8125 -19.269531 45.0625 -21.070312 43.5625 -22.375 C 42.0625 -23.675781 40.160156 -24.664062 37.859375 -25.34375 C 35.566406 -26.019531 32.519531 -26.671875 28.71875 -27.296875 C 23.65625 -28.242188 19.582031 -29.210938 16.5 -30.203125 C 13.414062 -31.191406 10.785156 -32.875 8.609375 -35.25 C 6.429688 -37.625 5.34375 -40.910156 5.34375 -45.109375 C 5.34375 -50.328125 7.519531 -54.597656 11.875 -57.921875 C 16.226562 -61.242188 22.28125 -62.90625 30.03125 -62.90625 C 34.0625 -62.90625 38.09375 -62.367188 42.125 -61.296875 C 46.164062 -60.234375 49.492188 -58.832031 52.109375 -57.09375 L 48.4375 -50.328125 C 43.289062 -53.890625 37.15625 -55.671875 30.03125 -55.671875 C 24.644531 -55.671875 20.585938 -54.71875 17.859375 -52.8125 C 15.128906 -50.914062 13.765625 -48.425781 13.765625 -45.34375 C 13.765625 -42.96875 14.535156 -41.066406 16.078125 -39.640625 C 17.628906 -38.222656 19.550781 -37.175781 21.84375 -36.5 C 24.132812 -35.832031 27.300781 -35.140625 31.34375 -34.421875 C 36.320312 -33.472656 40.316406 -32.523438 43.328125 -31.578125 C 46.335938 -30.628906 48.910156 -29.003906 51.046875 -26.703125 C 53.179688 -24.410156 54.25 -21.25 54.25 -17.21875 C 54.25 -11.75 51.972656 -7.410156 47.421875 -4.203125 C 42.867188 -1.003906 36.554688 0.59375 28.484375 0.59375 Z M 28.484375 0.59375 "/></g></g><g style="fill:#a149f2;fill-opacity:1;"><g transform="translate(182.000365, 154.039818)"><path style="stroke:none" d="M 43.921875 -62.90625 C 49.773438 -62.90625 55.078125 -61.578125 59.828125 -58.921875 C 64.578125 -56.273438 68.296875 -52.539062 70.984375 -47.71875 C 73.671875 -42.894531 75.015625 -37.394531 75.015625 -31.21875 C 75.015625 -24.96875 73.671875 -19.425781 70.984375 -14.59375 C 68.296875 -9.769531 64.597656 -6.03125 59.890625 -3.375 C 55.179688 -0.726562 49.859375 0.59375 43.921875 0.59375 C 38.859375 0.59375 34.285156 -0.453125 30.203125 -2.546875 C 26.128906 -4.648438 22.785156 -7.71875 20.171875 -11.75 L 20.171875 23.03125 L 11.75 23.03125 L 11.75 -62.4375 L 19.828125 -62.4375 L 19.828125 -50.09375 C 22.359375 -54.207031 25.695312 -57.367188 29.84375 -59.578125 C 34 -61.796875 38.691406 -62.90625 43.921875 -62.90625 Z M 43.328125 -6.890625 C 47.679688 -6.890625 51.632812 -7.894531 55.1875 -9.90625 C 58.75 -11.925781 61.539062 -14.796875 63.5625 -18.515625 C 65.582031 -22.234375 66.59375 -26.46875 66.59375 -31.21875 C 66.59375 -35.96875 65.582031 -40.179688 63.5625 -43.859375 C 61.539062 -47.535156 58.75 -50.398438 55.1875 -52.453125 C 51.632812 -54.515625 47.679688 -55.546875 43.328125 -55.546875 C 38.890625 -55.546875 34.910156 -54.515625 31.390625 -52.453125 C 27.867188 -50.398438 25.097656 -47.535156 23.078125 -43.859375 C 21.066406 -40.179688 20.0625 -35.96875 20.0625 -31.21875 C 20.0625 -26.46875 21.066406 -22.234375 23.078125 -18.515625 C 25.097656 -14.796875 27.867188 -11.925781 31.390625 -9.90625 C 34.910156 -7.894531 38.890625 -6.890625 43.328125 -6.890625 Z M 43.328125 -6.890625 "/></g></g><g style="fill:#a149f2;fill-opacity:1;"><g transform="translate(262.4805, 154.039818)"><path style="stroke:none" d="M 66.125 -28.609375 L 13.890625 -28.609375 C 14.359375 -22.117188 16.847656 -16.875 21.359375 -12.875 C 25.867188 -8.882812 31.566406 -6.890625 38.453125 -6.890625 C 42.335938 -6.890625 45.898438 -7.582031 49.140625 -8.96875 C 52.390625 -10.351562 55.203125 -12.390625 57.578125 -15.078125 L 62.3125 -9.609375 C 59.550781 -6.285156 56.09375 -3.753906 51.9375 -2.015625 C 47.78125 -0.273438 43.207031 0.59375 38.21875 0.59375 C 31.8125 0.59375 26.132812 -0.769531 21.1875 -3.5 C 16.238281 -6.226562 12.378906 -10.003906 9.609375 -14.828125 C 6.835938 -19.660156 5.453125 -25.125 5.453125 -31.21875 C 5.453125 -37.3125 6.773438 -42.769531 9.421875 -47.59375 C 12.078125 -52.425781 15.71875 -56.1875 20.34375 -58.875 C 24.976562 -61.5625 30.1875 -62.90625 35.96875 -62.90625 C 41.738281 -62.90625 46.921875 -61.5625 51.515625 -58.875 C 56.109375 -56.1875 59.707031 -52.445312 62.3125 -47.65625 C 64.925781 -42.875 66.234375 -37.394531 66.234375 -31.21875 Z M 35.96875 -55.671875 C 29.957031 -55.671875 24.910156 -53.75 20.828125 -49.90625 C 16.753906 -46.070312 14.441406 -41.070312 13.890625 -34.90625 L 58.171875 -34.90625 C 57.609375 -41.070312 55.289062 -46.070312 51.21875 -49.90625 C 47.144531 -53.75 42.0625 -55.671875 35.96875 -55.671875 Z M 35.96875 -55.671875 "/></g></g><g style="fill:#a149f2;fill-opacity:1;"><g transform="translate(334.176653, 154.039818)"><path style="stroke:none" d="M 37.625 0.59375 C 31.457031 0.59375 25.9375 -0.75 21.0625 -3.4375 C 16.195312 -6.132812 12.378906 -9.914062 9.609375 -14.78125 C 6.835938 -19.644531 5.453125 -25.125 5.453125 -31.21875 C 5.453125 -37.3125 6.835938 -42.769531 9.609375 -47.59375 C 12.378906 -52.425781 16.195312 -56.1875 21.0625 -58.875 C 25.9375 -61.5625 31.457031 -62.90625 37.625 -62.90625 C 43.007812 -62.90625 47.816406 -61.859375 52.046875 -59.765625 C 56.285156 -57.671875 59.628906 -54.601562 62.078125 -50.5625 L 55.796875 -46.296875 C 53.734375 -49.378906 51.117188 -51.691406 47.953125 -53.234375 C 44.785156 -54.773438 41.34375 -55.546875 37.625 -55.546875 C 33.113281 -55.546875 29.054688 -54.535156 25.453125 -52.515625 C 21.859375 -50.503906 19.050781 -47.640625 17.03125 -43.921875 C 15.007812 -40.203125 14 -35.96875 14 -31.21875 C 14 -26.394531 15.007812 -22.140625 17.03125 -18.453125 C 19.050781 -14.773438 21.859375 -11.925781 25.453125 -9.90625 C 29.054688 -7.894531 33.113281 -6.890625 37.625 -6.890625 C 41.34375 -6.890625 44.785156 -7.640625 47.953125 -9.140625 C 51.117188 -10.640625 53.734375 -12.9375 55.796875 -16.03125 L 62.078125 -11.75 C 59.628906 -7.71875 56.265625 -4.648438 51.984375 -2.546875 C 47.710938 -0.453125 42.925781 0.59375 37.625 0.59375 Z M 37.625 0.59375 "/></g></g><g style="fill:#a149f2;fill-opacity:1;"><g transform="translate(401.718275, 154.039818)"><path style="stroke:none" d="M 44.625 -3.796875 C 43.050781 -2.367188 41.09375 -1.28125 38.75 -0.53125 C 36.414062 0.21875 33.984375 0.59375 31.453125 0.59375 C 25.597656 0.59375 21.085938 -0.988281 17.921875 -4.15625 C 14.753906 -7.320312 13.171875 -11.789062 13.171875 -17.5625 L 13.171875 -55.3125 L 2.015625 -55.3125 L 2.015625 -62.4375 L 13.171875 -62.4375 L 13.171875 -76.09375 L 21.609375 -76.09375 L 21.609375 -62.4375 L 40.59375 -62.4375 L 40.59375 -55.3125 L 21.609375 -55.3125 L 21.609375 -18.046875 C 21.609375 -14.328125 22.535156 -11.492188 24.390625 -9.546875 C 26.253906 -7.609375 28.925781 -6.640625 32.40625 -6.640625 C 34.144531 -6.640625 35.828125 -6.914062 37.453125 -7.46875 C 39.078125 -8.03125 40.484375 -8.828125 41.671875 -9.859375 Z M 44.625 -3.796875 "/></g></g><g style="fill:#a149f2;fill-opacity:1;"><g transform="translate(449.911372, 154.039818)"><path style="stroke:none" d="M 11.75 -62.4375 L 20.171875 -62.4375 L 20.171875 0 L 11.75 0 Z M 16.03125 -76.09375 C 14.289062 -76.09375 12.828125 -76.6875 11.640625 -77.875 C 10.453125 -79.0625 9.859375 -80.484375 9.859375 -82.140625 C 9.859375 -83.722656 10.453125 -85.109375 11.640625 -86.296875 C 12.828125 -87.484375 14.289062 -88.078125 16.03125 -88.078125 C 17.769531 -88.078125 19.234375 -87.503906 20.421875 -86.359375 C 21.609375 -85.210938 22.203125 -83.847656 22.203125 -82.265625 C 22.203125 -80.523438 21.609375 -79.0625 20.421875 -77.875 C 19.234375 -76.6875 17.769531 -76.09375 16.03125 -76.09375 Z M 16.03125 -76.09375 "/></g></g><g style="fill:#a149f2;fill-opacity:1;"><g transform="translate(481.851024, 154.039818)"><path style="stroke:none" d="M 29.078125 -67.65625 L 29.078125 -45.703125 L 67.546875 -45.703125 L 67.546875 -30.265625 L 29.078125 -30.265625 L 29.078125 0 L 9.859375 0 L 9.859375 -83.09375 L 72.640625 -83.09375 L 72.640625 -67.65625 Z M 29.078125 -67.65625 "/></g></g><g style="fill:#a149f2;fill-opacity:1;"><g transform="translate(556.514702, 154.039818)"><path style="stroke:none" d="M 8.546875 -63.859375 L 27.0625 -63.859375 L 27.0625 0 L 8.546875 0 Z M 17.8125 -72.765625 C 14.40625 -72.765625 11.632812 -73.753906 9.5 -75.734375 C 7.363281 -77.710938 6.296875 -80.164062 6.296875 -83.09375 C 6.296875 -86.019531 7.363281 -88.472656 9.5 -90.453125 C 11.632812 -92.429688 14.40625 -93.421875 17.8125 -93.421875 C 21.21875 -93.421875 23.988281 -92.46875 26.125 -90.5625 C 28.257812 -88.664062 29.328125 -86.296875 29.328125 -83.453125 C 29.328125 -80.359375 28.257812 -77.800781 26.125 -75.78125 C 23.988281 -73.769531 21.21875 -72.765625 17.8125 -72.765625 Z M 17.8125 -72.765625 "/></g></g></g></svg>